HIERARCHY
ROOT Hips
{
	OFFSET 0.000000 0.000000 0.000000
	CHANNELS 6 Xposition Yposition Zposition Xrotation Yrotation Zrotation
	JOINT Thigh.L
	{
		OFFSET 0.053814 0.030153 -0.091355
		CHANNELS 3 Xrotation Yrotation Zrotation
		JOINT Shin.L
		{
			OFFSET 0.052069 0.016539 -0.405093
			CHANNELS 3 Xrotation Yrotation Zrotation
			JOINT Foot.L
			{
				OFFSET -0.040821 0.032772 -0.424649
				CHANNELS 3 Xrotation Yrotation Zrotation
				JOINT Toe.L
				{
					OFFSET 0.044180 -0.117671 -0.062491
					CHANNELS 3 Xrotation Yrotation Zrotation
					End Site
					{
						OFFSET 0.000000 0.050000 0.000000
					}
				}
			}
		}
	}
	JOINT Thigh.R
	{
		OFFSET -0.059049 0.027612 -0.101573
		CHANNELS 3 Xrotation Yrotation Zrotation
		JOINT Shin.R
		{
			OFFSET -0.041655 0.021785 -0.389052
			CHANNELS 3 Xrotation Yrotation Zrotation
			JOINT Foot.R
			{
				OFFSET 0.015303 0.021446 -0.433361
				CHANNELS 3 Xrotation Yrotation Zrotation
				JOINT Toe.R
				{
					OFFSET -0.036701 -0.118448 -0.062564
					CHANNELS 3 Xrotation Yrotation Zrotation
					End Site
					{
						OFFSET 0.000000 0.050000 0.000000
					}
				}
			}
		}
	}
	JOINT Spine
	{
		OFFSET -0.001870 0.019227 0.108137
		CHANNELS 3 Xrotation Yrotation Zrotation
		JOINT Spine.2
		{
			OFFSET 0.006550 0.002438 0.132983
			CHANNELS 3 Xrotation Yrotation Zrotation
			JOINT Chest
			{
				OFFSET -0.010384 -0.023412 0.048799
				CHANNELS 3 Xrotation Yrotation Zrotation
				JOINT Neck
				{
					OFFSET -0.009412 0.029595 0.162821
					CHANNELS 3 Xrotation Yrotation Zrotation
					JOINT Head
					{
						OFFSET 0.022084 -0.021876 0.165396
						CHANNELS 3 Xrotation Yrotation Zrotation
						End Site
						{
							OFFSET 0.000000 0.050000 0.000000
						}
					}
				}
				JOINT Clavicle.L
				{
					OFFSET 0.043297 0.008512 0.083197
					CHANNELS 3 Xrotation Yrotation Zrotation
					JOINT UpperArm.L
					{
						OFFSET 0.105653 0.014263 0.060928
						CHANNELS 3 Xrotation Yrotation Zrotation
						JOINT ForeArm.L
						{
							OFFSET 0.260620 0.034946 -0.074233
							CHANNELS 3 Xrotation Yrotation Zrotation
							JOINT Hand.L
							{
								OFFSET 0.258221 0.006341 0.020987
								CHANNELS 3 Xrotation Yrotation Zrotation
								JOINT Thumb1.L
								{
									OFFSET 0.154570 0.002936 0.009718
									CHANNELS 3 Xrotation Yrotation Zrotation
									JOINT Thumb2.L
									{
										OFFSET 0.029892 0.000734 0.002429
										CHANNELS 3 Xrotation Yrotation Zrotation
										End Site
										{
											OFFSET 0.024910 0.000612 0.002025
										}
									}
								}
								JOINT Index1.L
								{
									OFFSET 0.137570 0.002936 0.009718
									CHANNELS 3 Xrotation Yrotation Zrotation
									JOINT Index2.L
									{
										OFFSET 0.029892 0.000734 0.002429
										CHANNELS 3 Xrotation Yrotation Zrotation
										JOINT Index3.L
										{
											OFFSET 0.021921 0.000538 0.001782
											CHANNELS 3 Xrotation Yrotation Zrotation
											End Site
											{
												OFFSET 0.017935 0.000440 0.001458
											}
										}
									}
								}
								JOINT Middle1.L
								{
									OFFSET 0.119570 0.002936 0.009718
									CHANNELS 3 Xrotation Yrotation Zrotation
									JOINT Middle2.L
									{
										OFFSET 0.030889 0.000759 0.002510
										CHANNELS 3 Xrotation Yrotation Zrotation
										JOINT Middle3.L
										{
											OFFSET 0.021921 0.000538 0.001782
											CHANNELS 3 Xrotation Yrotation Zrotation
											End Site
											{
												OFFSET 0.017935 0.000440 0.001458
											}
										}
									}
								}
								JOINT Ring1.L
								{
									OFFSET 0.101570 0.002936 0.009718
									CHANNELS 3 Xrotation Yrotation Zrotation
									JOINT Ring2.L
									{
										OFFSET 0.028896 0.000710 0.002349
										CHANNELS 3 Xrotation Yrotation Zrotation
										JOINT Ring3.L
										{
											OFFSET 0.019928 0.000489 0.001620
											CHANNELS 3 Xrotation Yrotation Zrotation
											End Site
											{
												OFFSET 0.016939 0.000416 0.001377
											}
										}
									}
								}
								JOINT Pinky1.L
								{
									OFFSET 0.085570 0.002936 0.009718
									CHANNELS 3 Xrotation Yrotation Zrotation
									JOINT Pinky2.L
									{
										OFFSET 0.023914 0.000587 0.001944
										CHANNELS 3 Xrotation Yrotation Zrotation
										JOINT Pinky3.L
										{
											OFFSET 0.016939 0.000416 0.001377
											CHANNELS 3 Xrotation Yrotation Zrotation
											End Site
											{
												OFFSET 0.013950 0.000343 0.001134
											}
										}
									}
								}
							}
						}
					}
				}
				JOINT Clavicle.R
				{
					OFFSET -0.041394 0.014543 0.082703
					CHANNELS 3 Xrotation Yrotation Zrotation
					JOINT UpperArm.R
					{
						OFFSET -0.091092 0.009486 0.056573
						CHANNELS 3 Xrotation Yrotation Zrotation
						JOINT ForeArm.R
						{
							OFFSET -0.276443 0.022257 -0.041838
							CHANNELS 3 Xrotation Yrotation Zrotation
							JOINT Hand.R
							{
								OFFSET -0.255124 0.018682 -0.003426
								CHANNELS 3 Xrotation Yrotation Zrotation
								JOINT Thumb1.R
								{
									OFFSET -0.154669 0.008763 -0.001607
									CHANNELS 3 Xrotation Yrotation Zrotation
									JOINT Thumb2.R
									{
										OFFSET -0.029917 0.002191 -0.000402
										CHANNELS 3 Xrotation Yrotation Zrotation
										End Site
										{
											OFFSET -0.024931 0.001826 -0.000335
										}
									}
								}
								JOINT Index1.R
								{
									OFFSET -0.137669 0.008763 -0.001607
									CHANNELS 3 Xrotation Yrotation Zrotation
									JOINT Index2.R
									{
										OFFSET -0.029917 0.002191 -0.000402
										CHANNELS 3 Xrotation Yrotation Zrotation
										JOINT Index3.R
										{
											OFFSET -0.021939 0.001607 -0.000295
											CHANNELS 3 Xrotation Yrotation Zrotation
											End Site
											{
												OFFSET -0.017950 0.001314 -0.000241
											}
										}
									}
								}
								JOINT Middle1.R
								{
									OFFSET -0.119669 0.008763 -0.001607
									CHANNELS 3 Xrotation Yrotation Zrotation
									JOINT Middle2.R
									{
										OFFSET -0.030914 0.002264 -0.000415
										CHANNELS 3 Xrotation Yrotation Zrotation
										JOINT Middle3.R
										{
											OFFSET -0.021939 0.001607 -0.000295
											CHANNELS 3 Xrotation Yrotation Zrotation
											End Site
											{
												OFFSET -0.017950 0.001314 -0.000241
											}
										}
									}
								}
								JOINT Ring1.R
								{
									OFFSET -0.101669 0.008763 -0.001607
									CHANNELS 3 Xrotation Yrotation Zrotation
									JOINT Ring2.R
									{
										OFFSET -0.028920 0.002118 -0.000388
										CHANNELS 3 Xrotation Yrotation Zrotation
										JOINT Ring3.R
										{
											OFFSET -0.019945 0.001460 -0.000268
											CHANNELS 3 Xrotation Yrotation Zrotation
											End Site
											{
												OFFSET -0.016953 0.001241 -0.000228
											}
										}
									}
								}
								JOINT Pinky1.R
								{
									OFFSET -0.085669 0.008763 -0.001607
									CHANNELS 3 Xrotation Yrotation Zrotation
									JOINT Pinky2.R
									{
										OFFSET -0.023934 0.001753 -0.000321
										CHANNELS 3 Xrotation Yrotation Zrotation
										JOINT Pinky3.R
										{
											OFFSET -0.016953 0.001241 -0.000228
											CHANNELS 3 Xrotation Yrotation Zrotation
											End Site
											{
												OFFSET -0.013961 0.001022 -0.000188
											}
										}
									}
								}
							}
						}
					}
				}
			}
		}
	}
}
MOTION
Frames: 7
Frame Time: 0.04166667
0.081987774 0.008182694 1.034786 -13.613652 -17.660224 15.057709 19.637859 16.030381 -2.061234 3.644619 4.297540 -13.086528 -8.433885 -4.886827 10.573376 1.821594 0.417856 0.075327 -23.756465 -0.146603 5.111523 25.862520 -0.143307 -4.899391 14.537246 -10.503635 -7.931411 -0.465182 -2.198940 -1.139115 7.564281 5.574348 -1.586064 7.447086 0.672612 -1.181133 -7.535658 7.328630 1.988186 20.048338 2.962599 -4.723833 11.471905 -6.548892 5.914722 6.681712 18.219546 -2.954353 16.510778 45.791625 -22.545847 6.409797 0.288976 -19.716110 4.041758 1.583674 -6.991994 0.000000 0.000000 0.000000 0.000000 0.000000 0.000000 0.000000 0.000000 0.000000 0.000000 0.000000 0.000000 0.000000 0.000000 0.000000 0.000000 0.000000 0.000000 0.000000 0.000000 0.000000 0.000000 0.000000 0.000000 0.000000 0.000000 0.000000 0.000000 0.000000 0.000000 0.000000 0.000000 0.000000 0.000000 0.000000 0.000000 0.000000 0.000000 0.000000 0.000000 0.000000 0.000000 4.875681 -6.195341 4.721835 43.641533 -61.863717 34.456810 11.357820 0.114587 28.696073 -4.337050 0.391875 2.825635 0.000000 0.000000 0.000000 0.000000 0.000000 0.000000 0.000000 0.000000 0.000000 0.000000 0.000000 0.000000 0.000000 0.000000 0.000000 0.000000 0.000000 0.000000 0.000000 0.000000 0.000000 0.000000 0.000000 0.000000 0.000000 0.000000 0.000000 0.000000 0.000000 0.000000 0.000000 0.000000 0.000000 0.000000 0.000000 0.000000 0.000000 0.000000 0.000000 0.000000 0.000000 0.000000
0.100891639 -0.004458864 1.035624 -14.586068 -17.669788 12.528263 19.837305 16.268718 -1.756942 3.285937 4.209698 -12.994452 -8.444357 -5.308465 11.550647 1.943780 -0.225660 0.147645 -25.878938 0.774211 5.319590 33.164271 -1.519186 -5.232721 14.148939 -9.556297 -8.203724 -0.521968 -2.177480 -0.865591 8.082484 5.367103 -1.852288 7.800244 0.791173 -0.843310 -7.772952 7.656858 2.266143 20.660148 3.173920 -4.120222 11.593631 -6.006822 5.801145 6.948112 18.656204 -2.982709 15.422464 45.417544 -21.021957 5.827362 0.261538 -19.337508 4.416110 1.239947 -6.742074 0.000000 0.000000 0.000000 0.000000 0.000000 0.000000 0.000000 0.000000 0.000000 0.000000 0.000000 0.000000 0.000000 0.000000 0.000000 0.000000 0.000000 0.000000 0.000000 0.000000 0.000000 0.000000 0.000000 0.000000 0.000000 0.000000 0.000000 0.000000 0.000000 0.000000 0.000000 0.000000 0.000000 0.000000 0.000000 0.000000 0.000000 0.000000 0.000000 0.000000 0.000000 0.000000 4.924189 -6.220911 5.205641 43.780098 -62.237076 34.931231 11.411883 0.309594 28.962501 -4.244017 1.022045 2.897862 0.000000 0.000000 0.000000 0.000000 0.000000 0.000000 0.000000 0.000000 0.000000 0.000000 0.000000 0.000000 0.000000 0.000000 0.000000 0.000000 0.000000 0.000000 0.000000 0.000000 0.000000 0.000000 0.000000 0.000000 0.000000 0.000000 0.000000 0.000000 0.000000 0.000000 0.000000 0.000000 0.000000 0.000000 0.000000 0.000000 0.000000 0.000000 0.000000 0.000000 0.000000 0.000000
0.112646270 -0.014833048 1.036445 -15.497663 -17.235515 9.356971 19.704292 16.458553 -1.076198 2.805713 4.103135 -12.518420 -8.013555 -5.630405 12.688003 2.092767 -0.665451 0.180677 -27.779750 2.861343 5.536167 40.228534 -2.268324 -5.183207 13.126325 -8.644527 -8.543316 -0.528812 -2.046058 -0.648341 8.461585 4.743334 -2.033477 8.156380 1.023346 -0.388473 -7.932923 8.066328 2.578297 20.862448 3.358308 -3.627400 11.553646 -5.480894 5.737968 6.940647 19.211819 -2.841382 14.218794 45.162712 -19.281232 4.948374 0.134228 -18.611590 4.351928 0.946387 -6.446827 0.000000 0.000000 0.000000 0.000000 0.000000 0.000000 0.000000 0.000000 0.000000 0.000000 0.000000 0.000000 0.000000 0.000000 0.000000 0.000000 0.000000 0.000000 0.000000 0.000000 0.000000 0.000000 0.000000 0.000000 0.000000 0.000000 0.000000 0.000000 0.000000 0.000000 0.000000 0.000000 0.000000 0.000000 0.000000 0.000000 0.000000 0.000000 0.000000 0.000000 0.000000 0.000000 4.954935 -6.107302 5.538414 43.645936 -62.670265 35.115367 11.362364 0.568933 29.344010 -4.274674 1.732101 2.785258 0.000000 0.000000 0.000000 0.000000 0.000000 0.000000 0.000000 0.000000 0.000000 0.000000 0.000000 0.000000 0.000000 0.000000 0.000000 0.000000 0.000000 0.000000 0.000000 0.000000 0.000000 0.000000 0.000000 0.000000 0.000000 0.000000 0.000000 0.000000 0.000000 0.000000 0.000000 0.000000 0.000000 0.000000 0.000000 0.000000 0.000000 0.000000 0.000000 0.000000 0.000000 0.000000
0.108617446 -0.017546748 1.035664 -16.055362 -15.812253 5.405397 18.829950 15.877552 -0.462234 3.941710 3.900974 -11.914606 -8.248538 -6.197590 14.108991 2.122833 -1.086031 0.037348 -28.934822 5.626645 5.960164 44.993373 -1.814277 -4.934792 12.428813 -7.921048 -9.004318 -0.453050 -1.894984 -0.350528 8.612490 3.874033 -1.981927 8.300573 1.268278 0.104723 -7.941662 8.163965 2.860887 20.853708 3.607200 -2.875763 11.102487 -4.844925 6.340519 6.810075 19.445735 -2.169909 13.705299 45.419561 -17.937610 4.712280 -0.110759 -18.167839 4.144040 0.811513 -6.095715 0.000000 0.000000 0.000000 0.000000 0.000000 0.000000 0.000000 0.000000 0.000000 0.000000 0.000000 0.000000 0.000000 0.000000 0.000000 0.000000 0.000000 0.000000 0.000000 0.000000 0.000000 0.000000 0.000000 0.000000 0.000000 0.000000 0.000000 0.000000 0.000000 0.000000 0.000000 0.000000 0.000000 0.000000 0.000000 0.000000 0.000000 0.000000 0.000000 0.000000 0.000000 0.000000 5.260395 -5.770403 5.454057 43.609864 -62.766055 35.576067 11.379829 0.431676 29.283667 -4.274207 2.785757 2.766337 0.000000 0.000000 0.000000 0.000000 0.000000 0.000000 0.000000 0.000000 0.000000 0.000000 0.000000 0.000000 0.000000 0.000000 0.000000 0.000000 0.000000 0.000000 0.000000 0.000000 0.000000 0.000000 0.000000 0.000000 0.000000 0.000000 0.000000 0.000000 0.000000 0.000000 0.000000 0.000000 0.000000 0.000000 0.000000 0.000000 0.000000 0.000000 0.000000 0.000000 0.000000 0.000000
0.130944598 -0.025829368 1.037345 -16.971801 -15.351803 1.532430 18.430368 14.987213 0.800481 4.320458 4.101354 -10.511804 -7.804509 -5.612824 14.526624 2.225695 -1.608310 -0.063163 -29.394602 9.801866 6.621116 48.402986 -0.471363 -4.561427 10.580329 -6.815422 -9.727232 -0.237024 -1.739645 -0.244089 7.990987 2.720280 -1.842159 9.068031 1.528448 0.511065 -7.750106 8.330843 3.267329 21.012240 3.710443 -2.595251 11.081278 -4.645815 6.417127 6.717179 19.847343 -1.836900 13.136375 45.359893 -16.693163 5.065808 -0.342674 -17.793621 4.583825 0.919179 -6.385877 0.000000 0.000000 0.000000 0.000000 0.000000 0.000000 0.000000 0.000000 0.000000 0.000000 0.000000 0.000000 0.000000 0.000000 0.000000 0.000000 0.000000 0.000000 0.000000 0.000000 0.000000 0.000000 0.000000 0.000000 0.000000 0.000000 0.000000 0.000000 0.000000 0.000000 0.000000 0.000000 0.000000 0.000000 0.000000 0.000000 0.000000 0.000000 0.000000 0.000000 0.000000 0.000000 5.640518 -5.804965 5.443372 41.827876 -63.048224 34.150861 11.380416 0.928213 29.650252 -3.505986 2.881435 2.768861 0.000000 0.000000 0.000000 0.000000 0.000000 0.000000 0.000000 0.000000 0.000000 0.000000 0.000000 0.000000 0.000000 0.000000 0.000000 0.000000 0.000000 0.000000 0.000000 0.000000 0.000000 0.000000 0.000000 0.000000 0.000000 0.000000 0.000000 0.000000 0.000000 0.000000 0.000000 0.000000 0.000000 0.000000 0.000000 0.000000 0.000000 0.000000 0.000000 0.000000 0.000000 0.000000
0.136069905 -0.024507128 1.036088 -16.965823 -14.323494 -1.811233 17.427172 13.842171 1.683986 5.129108 4.878816 -9.252431 -7.721101 -5.664654 15.074022 2.015394 -1.762875 -0.216859 -29.131513 14.318400 6.494677 47.537158 0.571805 -3.828737 11.803759 -7.443215 -9.387998 -0.294795 -1.714337 -0.099031 7.301140 1.858295 -1.281359 9.432424 1.650883 0.618984 -7.278562 8.248836 3.491821 20.478359 3.475187 -2.357252 11.254726 -4.566301 7.002541 6.472144 19.848961 -1.304489 12.990594 45.664031 -16.102317 4.849450 -0.182665 -17.369513 3.209923 0.656989 -6.517678 0.000000 0.000000 0.000000 0.000000 0.000000 0.000000 0.000000 0.000000 0.000000 0.000000 0.000000 0.000000 0.000000 0.000000 0.000000 0.000000 0.000000 0.000000 0.000000 0.000000 0.000000 0.000000 0.000000 0.000000 0.000000 0.000000 0.000000 0.000000 0.000000 0.000000 0.000000 0.000000 0.000000 0.000000 0.000000 0.000000 0.000000 0.000000 0.000000 0.000000 0.000000 0.000000 5.889080 -5.673271 4.877673 40.728461 -62.736634 32.937959 11.925750 0.959552 30.109015 -3.559789 2.407371 2.751453 0.000000 0.000000 0.000000 0.000000 0.000000 0.000000 0.000000 0.000000 0.000000 0.000000 0.000000 0.000000 0.000000 0.000000 0.000000 0.000000 0.000000 0.000000 0.000000 0.000000 0.000000 0.000000 0.000000 0.000000 0.000000 0.000000 0.000000 0.000000 0.000000 0.000000 0.000000 0.000000 0.000000 0.000000 0.000000 0.000000 0.000000 0.000000 0.000000 0.000000 0.000000 0.000000
0.126062106 -0.007808968 1.032784 -16.553227 -12.266985 -4.357528 17.447357 12.493031 2.333543 5.517838 5.139156 -8.552053 -8.370749 -6.087836 15.709844 1.908386 -1.757893 -0.252461 -27.285582 17.194225 5.604941 41.938333 1.515237 -3.308297 12.835361 -8.615095 -9.156326 -0.252546 -1.599236 -0.207453 5.984108 1.435091 -0.828929 9.668932 1.135896 0.566656 -6.517462 7.751556 3.462806 20.439013 3.352113 -2.621778 11.313783 -4.534475 7.270271 6.756854 19.346419 -0.649395 13.625325 46.326704 -16.304730 4.820901 0.233752 -17.172958 1.808861 0.503888 -7.049255 0.000000 0.000000 0.000000 0.000000 0.000000 0.000000 0.000000 0.000000 0.000000 0.000000 0.000000 0.000000 0.000000 0.000000 0.000000 0.000000 0.000000 0.000000 0.000000 0.000000 0.000000 0.000000 0.000000 0.000000 0.000000 0.000000 0.000000 0.000000 0.000000 0.000000 0.000000 0.000000 0.000000 0.000000 0.000000 0.000000 0.000000 0.000000 0.000000 0.000000 0.000000 0.000000 6.267651 -5.705892 4.046142 39.536342 -62.314536 31.691596 11.757833 1.046642 30.033656 -3.894109 2.057292 2.580303 0.000000 0.000000 0.000000 0.000000 0.000000 0.000000 0.000000 0.000000 0.000000 0.000000 0.000000 0.000000 0.000000 0.000000 0.000000 0.000000 0.000000 0.000000 0.000000 0.000000 0.000000 0.000000 0.000000 0.000000 0.000000 0.000000 0.000000 0.000000 0.000000 0.000000 0.000000 0.000000 0.000000 0.000000 0.000000 0.000000 0.000000 0.000000 0.000000 0.000000 0.000000 0.000000
